<?xml version="1.0" standalone="no"?>
<!DOCTYPE svg PUBLIC "-//W3C//DTD SVG 20010904//EN"
 "http://www.w3.org/TR/2001/REC-SVG-20010904/DTD/svg10.dtd">
<svg version="1.0" xmlns="http://www.w3.org/2000/svg"
 width="512.000000pt" height="512.000000pt" viewBox="0 0 512.000000 512.000000"
 preserveAspectRatio="xMidYMid meet">
<metadata>
Created by potrace 1.14, written by Peter Selinger 2001-2017
</metadata>
<g transform="translate(0.000000,512.000000) scale(0.100000,-0.100000)"
fill="#000000" stroke="none">
<path d="M3052 2608 l3 -1683 143 0 142 0 1 25 c1 14 2 771 3 1682 l1 1658
-148 0 -147 0 2 -1682z"/>
<path d="M3363 2610 c0 -924 2 -1681 6 -1681 3 -1 70 -2 148 -3 l143 -1 0
1682 0 1683 -149 0 -148 0 0 -1680z"/>
<path d="M882 4243 c-8 -3 -8 -3350 1 -3359 6 -7 246 -8 253 -2 6 6 6 3350 0
3356 -5 5 -240 9 -254 5z"/>
<path d="M1487 4238 c-9 -5 -12 -430 -12 -1674 0 -916 3 -1670 6 -1675 4 -8
196 -14 277 -10 18 1 18 3361 0 3362 -68 5 -262 2 -271 -3z"/>
<path d="M3680 4098 c-3 -779 0 -3210 4 -3216 5 -8 272 -10 280 -1 5 5 7 887
6 2777 l0 582 -145 0 -145 0 0 -142z"/>
<path d="M3990 2566 c0 -1322 3 -1676 13 -1683 9 -7 215 -11 248 -4 3 0 6 757
6 1681 l0 1680 -133 0 -134 0 0 -1674z"/>
<path d="M1799 4184 c-5 -6 -9 -703 -9 -1682 l0 -1672 150 0 149 0 -2 1681 -2
1681 -138 2 c-89 1 -142 -3 -148 -10z"/>
<path d="M1166 4162 c-3 -5 -5 -763 -3 -1683 l2 -1674 145 0 145 0 0 1680 0
1680 -142 3 c-78 1 -144 -2 -147 -6z"/>
<path d="M2109 4078 c-3 -30 -5 -3334 -2 -3343 2 -6 58 -10 146 -10 l142 0 2
1683 3 1682 -145 0 c-109 0 -145 -3 -146 -12z"/>
<path d="M2740 4060 c-4 -3 -7 -759 -6 -1680 l1 -1675 148 -3 147 -3 -2 1683
-3 1682 -138 1 c-76 0 -142 -2 -147 -5z"/>
<path d="M2437 4022 c-16 -3 -17 -119 -17 -1683 l0 -1679 83 -1 c135 -2 200 1
206 7 6 6 9 3260 3 3323 l-4 36 -127 0 c-70 0 -135 -1 -144 -3z"/>
</g>
</svg>
